# xmcd
#
# Track frame offsets:
#	150
#	16647
#	33302
#	49160
#	64610
#	79747
#	104932
#	122370
#	139000
#	159170
#	176982
#	195552
#	213127
#	231357
#	248535
#	266795
#	284012
#
# Disc length: 4077 seconds
#
# Revision: 3
# Processed by: cddbd v1.5.1PL0 Copyright (c) Steve Scherf et al.
# Submitted via: dBpowerAMP V4.0
#
DISCID=eb0feb11
DTITLE=Various Artist - Totally Country Vol. 4
DYEAR=2005
DGENRE=Country
TTITLE0=Alan Jackson - That'd Be Alright
TTITLE1=Gretchen Wilson - Redneck Woman
TTITLE2=Kenny Chesney - No Shoes, No Shirt, No Problems
TTITLE3=Blake Shelton - Some Beach
TTITLE4=Big and Rich - Save A Horse (Ride A Cowboy)
TTITLE5=Toby Keith - I Love This Bar
TTITLE6=Joe Nichols - Brokenheartsville
TTITLE7=Brad Paisley - Little Moments
TTITLE8=John Michael Montgomery - Letters From Home
TTITLE9=Gary Allan - Tough Little Boys
TTITLE10=George Strait - Desperately
TTITLE11=Lonestar - Let's Be Us Again
TTITLE12=Sara Evans - Perfect
TTITLE13=Los Lonely Boys - Heaven
TTITLE14=Clay Walker - I Can't Sleep
TTITLE15=Buddy Jewell - Help Pour Out The Rain (Lacey's Song)
TTITLE16=Montgomery Gentry - Hell Yeah
EXTD=
EXTT0=
EXTT1=
EXTT2=
EXTT3=
EXTT4=
EXTT5=
EXTT6=
EXTT7=
EXTT8=
EXTT9=
EXTT10=
EXTT11=
EXTT12=
EXTT13=
EXTT14=
EXTT15=
EXTT16=
PLAYORDER=
